<?xml version="1.0" standalone="no"?>
<!DOCTYPE svg PUBLIC "-//W3C//DTD SVG 20010904//EN"
 "http://www.w3.org/TR/2001/REC-SVG-20010904/DTD/svg10.dtd">
<svg version="1.0" xmlns="http://www.w3.org/2000/svg"
 width="512.000000pt" height="512.000000pt" viewBox="0 0 512.000000 512.000000"
 preserveAspectRatio="xMidYMid meet">
<metadata>
Created by potrace 1.14, written by Peter Selinger 2001-2017
</metadata>
<g transform="translate(0.000000,512.000000) scale(0.100000,-0.100000)"
fill="#000000" stroke="none">
<path d="M745 4510 c-65 -14 -117 -62 -135 -125 -8 -29 -10 -441 -8 -1450 l3
-1410 24 -36 c51 -74 77 -82 316 -94 139 -7 223 -16 298 -31 12 -2 42 -7 67
-10 25 -3 63 -10 85 -16 22 -6 50 -12 63 -14 110 -21 389 -125 517 -195 125
-67 282 -178 361 -254 12 -11 35 -33 51 -48 l31 -28 0 1438 c0 791 -3 1453 -6
1472 -11 74 -154 251 -318 397 -37 32 -199 143 -222 151 -9 3 -24 11 -32 18
-42 32 -303 135 -407 160 -67 16 -267 54 -313 59 -164 17 -334 25 -375 16z"/>
<path d="M4248 4515 c-2 -1 -46 -5 -98 -9 -383 -26 -722 -128 -985 -299 -44
-29 -85 -56 -92 -62 -157 -134 -236 -219 -319 -344 l-49 -74 -1 -1464 -2
-1465 35 34 c20 18 45 42 57 53 148 137 383 276 611 360 103 38 326 99 405
110 94 13 106 15 130 19 14 3 61 8 105 12 44 3 93 8 110 10 16 2 71 4 121 5
127 2 182 28 223 104 l21 39 0 1408 c0 1251 -2 1412 -15 1446 -34 79 -86 112
-186 116 -38 2 -70 2 -71 1z"/>
<path d="M162 3878 c-77 -13 -119 -45 -147 -111 -13 -32 -15 -208 -15 -1522 0
-1614 -3 -1523 53 -1583 51 -55 108 -65 225 -41 88 18 287 54 352 63 195 27
245 33 400 43 207 14 602 7 755 -13 86 -11 233 -36 293 -50 35 -8 66 -14 70
-14 15 1 -98 95 -178 148 -286 192 -665 300 -1101 317 -177 7 -236 20 -321 71
-112 68 -182 161 -215 285 -15 58 -17 168 -17 1231 -1 641 -4 1170 -8 1174
-10 10 -95 11 -146 2z"/>
<path d="M4812 3881 c-4 -3 -8 -528 -8 -1166 0 -638 -3 -1178 -7 -1200 -20
-131 -99 -249 -217 -325 -78 -50 -157 -69 -317 -75 -142 -5 -232 -14 -338 -31
-110 -17 -119 -19 -175 -34 -25 -7 -54 -14 -64 -16 -29 -5 -111 -32 -206 -67
-162 -59 -355 -172 -465 -272 -54 -49 -54 -49 45 -26 49 11 82 17 150 26 59 8
108 16 131 20 93 18 589 26 759 12 177 -14 216 -18 236 -22 12 -2 48 -6 80
-10 33 -4 70 -9 84 -11 14 -3 66 -11 115 -20 50 -8 143 -26 208 -39 108 -22
122 -23 165 -10 50 15 100 59 120 108 9 20 12 400 12 1517 0 1326 -2 1494 -15
1528 -22 50 -50 79 -99 97 -41 15 -179 26 -194 16z"/>
</g>
</svg>
